<svg xmlns="http://www.w3.org/2000/svg">
    <defs>
        <symbol id="close" fill="none" >
            <path fill-rule="evenodd" clip-rule="evenodd" d="M12.4714 3.52861C12.7318 3.78896 12.7318 4.21107 12.4714 4.47141L4.47141 12.4714C4.21107 12.7318 3.78896 12.7318 3.52861 12.4714C3.26826 12.2111 3.26826 11.789 3.52861 11.5286L11.5286 3.52861C11.789 3.26826 12.2111 3.26826 12.4714 3.52861Z" fill="#495057"/>
            <path fill-rule="evenodd" clip-rule="evenodd" d="M3.52861 3.52861C3.78896 3.26826 4.21107 3.26826 4.47141 3.52861L12.4714 11.5286C12.7318 11.789 12.7318 12.2111 12.4714 12.4714C12.2111 12.7318 11.789 12.7318 11.5286 12.4714L3.52861 4.47141C3.26826 4.21107 3.26826 3.78896 3.52861 3.52861Z" fill="#495057"/>
        </symbol>
        <symbol id="input-success" fill="none">
            <path d="M22 11.08V12C21.9988 14.1564 21.3005 16.2547 20.0093 17.9818C18.7182 19.709 16.9033 20.9725 14.8354 21.5839C12.7674 22.1953 10.5573 22.1219 8.53447 21.3746C6.51168 20.6273 4.78465 19.2461 3.61096 17.4371C2.43727 15.628 1.87979 13.4881 2.02168 11.3363C2.16356 9.18457 2.99721 7.13633 4.39828 5.49707C5.79935 3.85782 7.69279 2.71538 9.79619 2.24015C11.8996 1.76491 14.1003 1.98234 16.07 2.86" stroke="#374FC7" stroke-width="2" stroke-linecap="round" stroke-linejoin="round"/>
            <path d="M22 4L12 14.01L9 11.01" stroke="#374FC7" stroke-width="2" stroke-linecap="round" stroke-linejoin="round"/>
        </symbol>
        <symbol id="input-error" fill="none">
            <path d="M10.29 2.86001L1.82 17C1.64537 17.3024 1.55296 17.6453 1.55199 17.9945C1.55101 18.3437 1.64149 18.6871 1.81442 18.9905C1.98736 19.2939 2.23672 19.5468 2.53771 19.7239C2.83869 19.901 3.1808 19.9962 3.53 20H20.47C20.8192 19.9962 21.1613 19.901 21.4623 19.7239C21.7633 19.5468 22.0126 19.2939 22.1856 18.9905C22.3585 18.6871 22.449 18.3437 22.448 17.9945C22.447 17.6453 22.3546 17.3024 22.18 17L13.71 2.86001C13.5317 2.56611 13.2807 2.32313 12.9812 2.15449C12.6817 1.98585 12.3437 1.89726 12 1.89726C11.6563 1.89726 11.3183 1.98585 11.0188 2.15449C10.7193 2.32313 10.4683 2.56611 10.29 2.86001V2.86001Z" stroke="#F03D3E" stroke-width="2" stroke-linecap="round" stroke-linejoin="round"/>
            <path d="M12 8V12" stroke="#F03D3E" stroke-width="2" stroke-linecap="round" stroke-linejoin="round"/>
            <path d="M12 15V15.5" stroke="#F03D3E" stroke-width="2" stroke-linecap="round" stroke-linejoin="round"/>
        </symbol>
    </defs>
    <defs>
        <symbol id="logo" fill="none" >
            <g clip-path="url(#clip0_18829_459)">
            <rect y="1" width="30" height="30" fill="#212429"/>
            <rect x="38" width="32" height="32" rx="16" fill="#212429"/>
            <path d="M78 0L110 32H78V0Z" fill="#212429"/>
            </g>
            <defs>
            <clipPath id="clip0_18829_459">
            <rect width="110" height="32" fill="white"/>
            </clipPath>
            </defs>
        </symbol>
    </defs>
</svg>
