<svg xmlns="http://www.w3.org/2000/svg">
    <defs>
        <symbol id="close" fill="none">
            <path fill-rule="evenodd" clip-rule="evenodd" d="M12.4714 3.52861C12.7318 3.78896 12.7318 4.21107 12.4714 4.47141L4.47141 12.4714C4.21107 12.7318 3.78896 12.7318 3.52861 12.4714C3.26826 12.2111 3.26826 11.789 3.52861 11.5286L11.5286 3.52861C11.789 3.26826 12.2111 3.26826 12.4714 3.52861Z" fill="#495057"/>
            <path fill-rule="evenodd" clip-rule="evenodd" d="M3.52861 3.52861C3.78896 3.26826 4.21107 3.26826 4.47141 3.52861L12.4714 11.5286C12.7318 11.789 12.7318 12.2111 12.4714 12.4714C12.2111 12.7318 11.789 12.7318 11.5286 12.4714L3.52861 4.47141C3.26826 4.21107 3.26826 3.78896 3.52861 3.52861Z" fill="#495057"/>
        </symbol>
    </defs>
    <defs>
        <symbol id="logo" fill="none" >
            <g clip-path="url(#clip0_18829_459)">
            <rect y="1" width="30" height="30" fill="#212429"/>
            <rect x="38" width="32" height="32" rx="16" fill="#212429"/>
            <path d="M78 0L110 32H78V0Z" fill="#212429"/>
            </g>
            <defs>
            <clipPath id="clip0_18829_459">
            <rect width="110" height="32" fill="white"/>
            </clipPath>
            </defs>
        </symbol>
    </defs>
</svg>